# This file uses centimeters as units for non-parametric coordinates.

mtllib plant01.mtl
g default
v -0.004450 -0.046428 -0.080431
v 0.125533 -0.046428 0.165858
v 0.814503 0.323117 -0.387789
v 0.841406 0.323117 -0.336812
v 0.091130 0.157058 -0.133256
v 0.472432 0.302958 -0.295560
v 0.572238 0.302958 -0.106450
v 0.223079 0.157058 0.116758
v 0.030428 -0.046428 0.231228
v -0.045946 -0.046428 -0.036580
v -0.837215 0.323117 0.352851
v -0.847227 0.323117 0.317744
v -0.073994 0.157058 0.263197
v -0.480578 0.302958 0.343342
v -0.539220 0.302958 0.137709
v -0.151523 0.157058 -0.008661
v 0.169196 -0.046428 0.059212
v -0.082311 -0.046428 0.178787
v 0.436314 0.323117 0.893025
v 0.395739 0.323117 0.912316
v 0.217980 0.157058 0.156916
v 0.364204 0.302958 0.544669
v 0.171088 0.302958 0.636483
v -0.037331 0.157058 0.278300
v -0.149350 -0.046428 0.066721
v 0.105463 -0.046428 -0.045636
v -0.402436 0.323117 -0.770026
v -0.341637 0.323117 -0.796834
v -0.195329 0.157058 -0.032334
v -0.330440 0.302958 -0.424097
v -0.134785 0.302958 -0.510369
v 0.063339 0.157058 -0.146390
v -0.054331 0.088912 0.036517
v 0.099938 0.088912 0.039345
v -0.007813 0.293659 -0.443479
v 0.071042 0.293659 -0.442033
v -0.054389 0.201654 -0.023989
v -0.031121 0.282490 -0.252410
v 0.087332 0.282490 -0.250238
v 0.102213 0.201654 -0.021118
v 0.106209 0.088912 0.102977
v -0.044158 0.088912 0.068382
v -0.038338 0.293659 0.563049
v -0.115198 0.293659 0.545366
v 0.093782 0.201654 0.162192
v 0.023889 0.282490 0.380899
v -0.091568 0.282490 0.354336
v -0.058859 0.201654 0.127075
v 0.059877 0.088912 -0.010371
v 0.050604 0.088912 0.143645
v 0.537509 0.293659 0.056169
v 0.532769 0.293659 0.134894
v 0.120332 0.201654 -0.007900
v 0.347581 0.282490 0.024895
v 0.340461 0.282490 0.143154
v 0.110919 0.201654 0.148445
v -0.021703 0.088912 0.146188
v -0.008043 0.088912 -0.007501
v -0.497245 0.293659 0.066059
v -0.490262 0.293659 -0.012499
v -0.082064 0.201654 0.141995
v -0.308285 0.282490 0.102735
v -0.297797 0.282490 -0.015273
v -0.068197 0.201654 -0.014019
v -0.054430 0.034526 -0.028583
v 0.137490 0.034526 0.093730
v 0.373596 0.336524 -0.596692
v 0.471696 0.336524 -0.534171
v -0.007926 0.200818 -0.104754
v 0.197186 0.320050 -0.374236
v 0.344549 0.320050 -0.280319
v 0.186897 0.200818 0.019409
v 0.096397 0.034526 0.178618
v -0.066160 0.034526 0.019340
v -0.439629 0.336524 0.646197
v -0.522720 0.336524 0.564783
v 0.035178 0.200818 0.243556
v -0.221119 0.320050 0.464923
v -0.345936 0.320050 0.342624
v -0.129837 0.200818 0.081869
v 0.125358 0.034526 0.000341
v -0.004870 0.034526 0.186981
v 0.675080 0.336524 0.451738
v 0.608514 0.336524 0.547139
v 0.199519 0.200818 0.049988
v 0.460192 0.320050 0.266184
v 0.360198 0.320050 0.409494
v 0.067321 0.200818 0.239451
v -0.097803 0.034526 0.134519
v 0.037693 0.034526 -0.048333
v -0.634434 0.336524 -0.332365
v -0.565176 0.336524 -0.425830
v -0.170519 0.200818 0.082778
v -0.424923 0.320050 -0.140761
v -0.320884 0.320050 -0.281162
v -0.032974 0.200818 -0.102840
v -0.004450 -0.038454 -0.080431
v 0.125533 -0.038454 0.165858
v 0.814503 0.331091 -0.387789
v 0.841406 0.331091 -0.336812
v 0.091130 0.165032 -0.133256
v 0.472432 0.310932 -0.295560
v 0.572238 0.310932 -0.106450
v 0.223079 0.165032 0.116758
v 0.030428 -0.038454 0.231228
v -0.045946 -0.038454 -0.036580
v -0.837215 0.331091 0.352851
v -0.847227 0.331091 0.317744
v -0.073994 0.165032 0.263197
v -0.480578 0.310932 0.343342
v -0.539220 0.310932 0.137709
v -0.151523 0.165032 -0.008661
v 0.169196 -0.038454 0.059212
v -0.082311 -0.038454 0.178787
v 0.436314 0.331091 0.893025
v 0.395739 0.331091 0.912316
v 0.217980 0.165032 0.156916
v 0.364204 0.310932 0.544669
v 0.171088 0.310932 0.636483
v -0.037331 0.165032 0.278300
v -0.149350 -0.038454 0.066721
v 0.105463 -0.038454 -0.045636
v -0.402436 0.331091 -0.770026
v -0.341637 0.331091 -0.796834
v -0.195329 0.165032 -0.032334
v -0.330440 0.310932 -0.424097
v -0.134785 0.310932 -0.510369
v 0.063339 0.165032 -0.146390
v -0.054331 0.096885 0.036517
v 0.099938 0.096885 0.039345
v -0.007813 0.301632 -0.443479
v 0.071042 0.301632 -0.442033
v -0.054389 0.209627 -0.023989
v -0.031121 0.290463 -0.252410
v 0.087332 0.290463 -0.250238
v 0.102213 0.209627 -0.021118
v 0.106209 0.096885 0.102977
v -0.044158 0.096885 0.068382
v -0.038338 0.301632 0.563049
v -0.115198 0.301632 0.545366
v 0.093782 0.209627 0.162192
v 0.023889 0.290463 0.380899
v -0.091568 0.290463 0.354336
v -0.058859 0.209627 0.127075
v 0.059877 0.096885 -0.010371
v 0.050604 0.096885 0.143645
v 0.537509 0.301632 0.056169
v 0.532769 0.301632 0.134894
v 0.120332 0.209627 -0.007900
v 0.347581 0.290463 0.024895
v 0.340461 0.290463 0.143154
v 0.110919 0.209627 0.148445
v -0.021703 0.096885 0.146188
v -0.008043 0.096885 -0.007501
v -0.497245 0.301632 0.066059
v -0.490262 0.301632 -0.012499
v -0.082064 0.209627 0.141995
v -0.308285 0.290463 0.102735
v -0.297797 0.290463 -0.015273
v -0.068197 0.209627 -0.014019
v -0.054430 0.042499 -0.028583
v 0.137490 0.042499 0.093730
v 0.373596 0.344498 -0.596692
v 0.471696 0.344498 -0.534171
v -0.007926 0.208792 -0.104754
v 0.197186 0.328024 -0.374236
v 0.344549 0.328024 -0.280319
v 0.186897 0.208792 0.019409
v 0.096397 0.042499 0.178618
v -0.066160 0.042499 0.019340
v -0.439629 0.344498 0.646197
v -0.522720 0.344498 0.564783
v 0.035178 0.208792 0.243556
v -0.221119 0.328024 0.464923
v -0.345936 0.328024 0.342624
v -0.129837 0.208792 0.081869
v 0.125358 0.042499 0.000341
v -0.004870 0.042499 0.186981
v 0.675080 0.344498 0.451738
v 0.608514 0.344498 0.547139
v 0.199519 0.208792 0.049988
v 0.460192 0.328024 0.266184
v 0.360198 0.328024 0.409494
v 0.067321 0.208792 0.239451
v -0.097803 0.042499 0.134519
v 0.037693 0.042499 -0.048333
v -0.634434 0.344498 -0.332365
v -0.565176 0.344498 -0.425830
v -0.170519 0.208792 0.082778
v -0.424923 0.328024 -0.140761
v -0.320884 0.328024 -0.281162
v -0.032974 0.208792 -0.102840
vt 0.457786 0.063398
vt 0.203531 0.120924
vt 0.203557 0.163266
vt 0.949287 0.243924
vt 0.949161 0.039348
vt 0.779647 0.245576
vt 0.457882 0.220479
vt 0.779519 0.037905
vt 0.561041 0.536735
vt 0.561028 0.713450
vt 0.847107 0.640198
vt 0.847109 0.610028
vt 0.008232 0.509979
vt 0.008216 0.740126
vt 0.199060 0.741880
vt 0.199077 0.508253
vt 0.560888 0.270627
vt 0.564862 0.446707
vt 0.848338 0.370732
vt 0.847503 0.333737
vt 0.009466 0.256438
vt 0.014641 0.485757
vt 0.204839 0.483200
vt 0.199585 0.250412
vt 0.559617 0.271928
vt 0.563607 0.446523
vt 0.844875 0.379892
vt 0.843635 0.325638
vt 0.012835 0.258016
vt 0.018032 0.485402
vt 0.206627 0.482812
vt 0.201351 0.251987
vt 0.552949 0.775475
vt 0.556918 0.951020
vt 0.840435 0.915251
vt 0.837792 0.798391
vt 0.003200 0.761353
vt 0.008369 0.989976
vt 0.197990 0.987418
vt 0.192742 0.755337
vt 0.552949 0.775475
vt 0.556918 0.951020
vt 0.840435 0.915251
vt 0.837792 0.798391
vt 0.003200 0.761353
vt 0.008369 0.989976
vt 0.197990 0.987418
vt 0.192742 0.755337
vt 0.552949 0.775475
vt 0.556918 0.951020
vt 0.840435 0.915251
vt 0.837792 0.798391
vt 0.003200 0.761353
vt 0.008369 0.989976
vt 0.197989 0.987418
vt 0.192741 0.755337
vt 0.552949 0.775475
vt 0.556918 0.951020
vt 0.840435 0.915251
vt 0.837792 0.798391
vt 0.003200 0.761353
vt 0.008369 0.989976
vt 0.197989 0.987418
vt 0.192742 0.755337
vt 0.552949 0.775475
vt 0.556918 0.951020
vt 0.840435 0.915251
vt 0.837792 0.798391
vt 0.003200 0.761353
vt 0.008369 0.989976
vt 0.197990 0.987418
vt 0.192742 0.755337
vt 0.552949 0.775475
vt 0.556918 0.951020
vt 0.840435 0.915251
vt 0.837792 0.798391
vt 0.003200 0.761353
vt 0.008369 0.989976
vt 0.197990 0.987418
vt 0.192742 0.755337
vt 0.552949 0.775476
vt 0.556918 0.951020
vt 0.840435 0.915253
vt 0.837793 0.798392
vt 0.003200 0.761353
vt 0.008369 0.989975
vt 0.197989 0.987418
vt 0.192742 0.755337
vt 0.552949 0.775475
vt 0.556918 0.951020
vt 0.840435 0.915251
vt 0.837792 0.798391
vt 0.003200 0.761353
vt 0.008369 0.989976
vt 0.197989 0.987418
vt 0.192742 0.755337
vt 0.457778 0.063423
vt 0.457886 0.220504
vt 0.203557 0.163311
vt 0.203527 0.120968
vt 0.949151 0.039335
vt 0.949293 0.243911
vt 0.779653 0.245576
vt 0.779509 0.037905
vt 0.561028 0.713450
vt 0.561041 0.536735
vt 0.847109 0.610029
vt 0.847107 0.640199
vt 0.008216 0.740126
vt 0.008232 0.509979
vt 0.199077 0.508253
vt 0.199060 0.741880
vt 0.564862 0.446707
vt 0.560888 0.270628
vt 0.847503 0.333737
vt 0.848338 0.370733
vt 0.014641 0.485757
vt 0.009466 0.256438
vt 0.199585 0.250412
vt 0.204838 0.483200
vt 0.563607 0.446523
vt 0.559617 0.271928
vt 0.843635 0.325638
vt 0.844875 0.379893
vt 0.018032 0.485402
vt 0.012835 0.258016
vt 0.201351 0.251987
vt 0.206627 0.482812
vt 0.556918 0.951020
vt 0.552949 0.775475
vt 0.837792 0.798391
vt 0.840435 0.915252
vt 0.008369 0.989976
vt 0.003200 0.761353
vt 0.192742 0.755337
vt 0.197989 0.987418
vt 0.556918 0.951020
vt 0.552949 0.775475
vt 0.837792 0.798391
vt 0.840435 0.915252
vt 0.008369 0.989976
vt 0.003200 0.761353
vt 0.192742 0.755337
vt 0.197990 0.987418
vt 0.556918 0.951020
vt 0.552949 0.775475
vt 0.837792 0.798391
vt 0.840435 0.915252
vt 0.008369 0.989976
vt 0.003200 0.761353
vt 0.192742 0.755337
vt 0.197989 0.987418
vt 0.556918 0.951020
vt 0.552949 0.775475
vt 0.837792 0.798391
vt 0.840435 0.915252
vt 0.008369 0.989976
vt 0.003200 0.761353
vt 0.192742 0.755337
vt 0.197989 0.987418
vt 0.556918 0.951020
vt 0.552949 0.775475
vt 0.837792 0.798391
vt 0.840435 0.915252
vt 0.008369 0.989976
vt 0.003200 0.761353
vt 0.192742 0.755337
vt 0.197989 0.987418
vt 0.556918 0.951020
vt 0.552949 0.775475
vt 0.837792 0.798391
vt 0.840435 0.915252
vt 0.008369 0.989976
vt 0.003200 0.761353
vt 0.192742 0.755337
vt 0.197989 0.987418
vt 0.556918 0.951020
vt 0.552949 0.775475
vt 0.837792 0.798391
vt 0.840435 0.915252
vt 0.008369 0.989976
vt 0.003200 0.761353
vt 0.192742 0.755337
vt 0.197989 0.987418
vt 0.556918 0.951020
vt 0.552949 0.775475
vt 0.837792 0.798391
vt 0.840435 0.915252
vt 0.008369 0.989976
vt 0.003200 0.761353
vt 0.192742 0.755337
vt 0.197989 0.987418
vn 0.232895 -0.964703 -0.122914
vn 0.051503 -0.998303 -0.027181
vn 0.051503 -0.998303 -0.027181
vn 0.232895 -0.964703 -0.122914
vn 0.779291 -0.472811 -0.411284
vn 0.513465 -0.814198 -0.270989
vn 0.513465 -0.814198 -0.270989
vn 0.779291 -0.472811 -0.411284
vn -0.258290 -0.963255 0.073660
vn -0.056003 -0.998303 0.015971
vn -0.056003 -0.998303 0.015971
vn -0.258290 -0.963255 0.073660
vn -0.847379 -0.472811 0.241657
vn -0.558327 -0.814198 0.159225
vn -0.558327 -0.814198 0.159225
vn -0.847379 -0.472811 0.241657
vn 0.114424 -0.963838 0.240673
vn 0.025005 -0.998303 0.052594
vn 0.025005 -0.998303 0.052594
vn 0.114424 -0.963838 0.240673
vn 0.378352 -0.472811 0.795801
vn 0.249291 -0.814198 0.524343
vn 0.249291 -0.814198 0.524343
vn 0.378352 -0.472811 0.795801
vn -0.105372 -0.965292 -0.238973
vn -0.023496 -0.998303 -0.053285
vn -0.023496 -0.998303 -0.053286
vn -0.105372 -0.965292 -0.238973
vn -0.355513 -0.472811 -0.806263
vn -0.234242 -0.814198 -0.531236
vn -0.234242 -0.814198 -0.531236
vn -0.355513 -0.472811 -0.806263
vn 0.004455 -0.970010 -0.243025
vn 0.001067 -0.998303 -0.058226
vn 0.001067 -0.998303 -0.058226
vn 0.004455 -0.970010 -0.243025
vn 0.016149 -0.472811 -0.881016
vn 0.010641 -0.814198 -0.580489
vn 0.010641 -0.814198 -0.580489
vn 0.016149 -0.472811 -0.881016
vn -0.054498 -0.970010 0.236878
vn -0.013057 -0.998303 0.056753
vn -0.013057 -0.998303 0.056753
vn -0.054498 -0.970010 0.236878
vn -0.197567 -0.472811 0.858730
vn -0.130174 -0.814198 0.565805
vn -0.130174 -0.814198 0.565805
vn -0.197567 -0.472811 0.858730
vn 0.242627 -0.970010 0.014609
vn 0.058130 -0.998303 0.003500
vn 0.058130 -0.998303 0.003500
vn 0.242627 -0.970010 0.014609
vn 0.879571 -0.472811 0.052959
vn 0.579537 -0.814198 0.034894
vn 0.579537 -0.814198 0.034894
vn 0.879571 -0.472811 0.052959
vn -0.242112 -0.970010 -0.021519
vn -0.058007 -0.998303 -0.005156
vn -0.058007 -0.998303 -0.005156
vn -0.242112 -0.970010 -0.021519
vn -0.877704 -0.472811 -0.078011
vn -0.578307 -0.814198 -0.051401
vn -0.578307 -0.814198 -0.051401
vn -0.877704 -0.472811 -0.078011
vn 0.130635 -0.970010 -0.204978
vn 0.031298 -0.998303 -0.049110
vn 0.031298 -0.998303 -0.049110
vn 0.130635 -0.970010 -0.204978
vn 0.473577 -0.472812 -0.743084
vn 0.312033 -0.814198 -0.489608
vn 0.312033 -0.814198 -0.489608
vn 0.473577 -0.472812 -0.743084
vn -0.170114 -0.970010 0.173616
vn -0.040757 -0.998303 0.041596
vn -0.040757 -0.998303 0.041596
vn -0.170114 -0.970010 0.173616
vn -0.616696 -0.472811 0.629393
vn -0.406333 -0.814198 0.414699
vn -0.406333 -0.814198 0.414699
vn -0.616696 -0.472811 0.629393
vn 0.199338 -0.970010 0.139088
vn 0.047759 -0.998303 0.033324
vn 0.047759 -0.998303 0.033324
vn 0.199338 -0.970010 0.139088
vn 0.722641 -0.472811 0.504222
vn 0.476138 -0.814198 0.332225
vn 0.476138 -0.814198 0.332225
vn 0.722641 -0.472811 0.504222
vn -0.195292 -0.970010 -0.144714
vn -0.046790 -0.998303 -0.034672
vn -0.046790 -0.998303 -0.034672
vn -0.195292 -0.970010 -0.144714
vn -0.707974 -0.472811 -0.524617
vn -0.466474 -0.814198 -0.345663
vn -0.466474 -0.814198 -0.345663
vn -0.707974 -0.472811 -0.524617
vn -0.232895 0.964703 0.122914
vn -0.232895 0.964703 0.122914
vn -0.051503 0.998303 0.027182
vn -0.051503 0.998303 0.027182
vn -0.779291 0.472811 0.411284
vn -0.779291 0.472811 0.411284
vn -0.513465 0.814198 0.270989
vn -0.513465 0.814198 0.270989
vn 0.258290 0.963255 -0.073660
vn 0.258290 0.963255 -0.073660
vn 0.056003 0.998303 -0.015971
vn 0.056003 0.998303 -0.015971
vn 0.847379 0.472811 -0.241657
vn 0.847379 0.472811 -0.241657
vn 0.558327 0.814198 -0.159225
vn 0.558327 0.814198 -0.159225
vn -0.114424 0.963838 -0.240673
vn -0.114424 0.963838 -0.240673
vn -0.025005 0.998303 -0.052594
vn -0.025005 0.998303 -0.052594
vn -0.378352 0.472811 -0.795801
vn -0.378352 0.472811 -0.795801
vn -0.249291 0.814198 -0.524343
vn -0.249291 0.814198 -0.524343
vn 0.105372 0.965292 0.238973
vn 0.105372 0.965292 0.238973
vn 0.023496 0.998303 0.053286
vn 0.023496 0.998303 0.053286
vn 0.355513 0.472811 0.806263
vn 0.355513 0.472811 0.806263
vn 0.234242 0.814198 0.531236
vn 0.234242 0.814198 0.531236
vn -0.004455 0.970010 0.243025
vn -0.004455 0.970010 0.243026
vn -0.001067 0.998303 0.058226
vn -0.001067 0.998303 0.058226
vn -0.016149 0.472811 0.881016
vn -0.016149 0.472811 0.881016
vn -0.010641 0.814198 0.580489
vn -0.010641 0.814198 0.580489
vn 0.054498 0.970010 -0.236878
vn 0.054498 0.970010 -0.236878
vn 0.013057 0.998303 -0.056753
vn 0.013057 0.998303 -0.056753
vn 0.197567 0.472811 -0.858730
vn 0.197567 0.472811 -0.858730
vn 0.130174 0.814198 -0.565806
vn 0.130174 0.814198 -0.565805
vn -0.242627 0.970010 -0.014609
vn -0.242627 0.970010 -0.014609
vn -0.058130 0.998303 -0.003500
vn -0.058130 0.998303 -0.003500
vn -0.879571 0.472811 -0.052959
vn -0.879571 0.472811 -0.052959
vn -0.579537 0.814198 -0.034894
vn -0.579537 0.814198 -0.034894
vn 0.242112 0.970010 0.021519
vn 0.242112 0.970010 0.021519
vn 0.058007 0.998303 0.005156
vn 0.058007 0.998303 0.005156
vn 0.877704 0.472811 0.078011
vn 0.877704 0.472811 0.078011
vn 0.578307 0.814198 0.051401
vn 0.578307 0.814198 0.051401
vn -0.130635 0.970010 0.204978
vn -0.130635 0.970010 0.204978
vn -0.031298 0.998303 0.049110
vn -0.031298 0.998303 0.049110
vn -0.473577 0.472812 0.743084
vn -0.473577 0.472812 0.743084
vn -0.312033 0.814198 0.489608
vn -0.312033 0.814198 0.489608
vn 0.170114 0.970010 -0.173616
vn 0.170114 0.970010 -0.173616
vn 0.040757 0.998303 -0.041596
vn 0.040757 0.998303 -0.041596
vn 0.616696 0.472811 -0.629393
vn 0.616696 0.472811 -0.629393
vn 0.406333 0.814198 -0.414699
vn 0.406333 0.814198 -0.414699
vn -0.199338 0.970010 -0.139088
vn -0.199338 0.970010 -0.139088
vn -0.047759 0.998303 -0.033324
vn -0.047759 0.998303 -0.033324
vn -0.722641 0.472811 -0.504222
vn -0.722641 0.472811 -0.504222
vn -0.476138 0.814198 -0.332225
vn -0.476138 0.814198 -0.332225
vn 0.195292 0.970010 0.144714
vn 0.195292 0.970010 0.144714
vn 0.046790 0.998303 0.034672
vn 0.046790 0.998303 0.034672
vn 0.707974 0.472811 0.524617
vn 0.707974 0.472811 0.524617
vn 0.466474 0.814198 0.345663
vn 0.466474 0.814198 0.345663
s 1
g Plant01_mesh
usemtl initialShadingGroup
f 6/7/1 3/3/2 4/2/3 7/1/4
f 1/4/5 5/6/6 8/8/7 2/5/8
f 6/7/1 7/1/4 8/8/7 5/6/6
s 2
f 14/9/9 11/12/10 12/11/11 15/10/12
f 9/13/13 13/16/14 16/15/15 10/14/16
f 14/9/9 15/10/12 16/15/15 13/16/14
s 3
f 22/17/17 19/20/18 20/19/19 23/18/20
f 17/21/21 21/24/22 24/23/23 18/22/24
f 22/17/17 23/18/20 24/23/23 21/24/22
s 4
f 30/25/25 27/28/26 28/27/27 31/26/28
f 25/29/29 29/32/30 32/31/31 26/30/32
f 30/25/25 31/26/28 32/31/31 29/32/30
s 5
f 38/33/33 35/36/34 36/35/35 39/34/36
f 33/37/37 37/40/38 40/39/39 34/38/40
f 38/33/33 39/34/36 40/39/39 37/40/38
s 6
f 46/41/41 43/44/42 44/43/43 47/42/44
f 41/45/45 45/48/46 48/47/47 42/46/48
f 46/41/41 47/42/44 48/47/47 45/48/46
s 7
f 54/49/49 51/52/50 52/51/51 55/50/52
f 49/53/53 53/56/54 56/55/55 50/54/56
f 54/49/49 55/50/52 56/55/55 53/56/54
s 8
f 62/57/57 59/60/58 60/59/59 63/58/60
f 57/61/61 61/64/62 64/63/63 58/62/64
f 62/57/57 63/58/60 64/63/63 61/64/62
s 9
f 70/65/65 67/68/66 68/67/67 71/66/68
f 65/69/69 69/72/70 72/71/71 66/70/72
f 70/65/65 71/66/68 72/71/71 69/72/70
s 10
f 78/73/73 75/76/74 76/75/75 79/74/76
f 73/77/77 77/80/78 80/79/79 74/78/80
f 78/73/73 79/74/76 80/79/79 77/80/78
s 11
f 86/81/81 83/84/82 84/83/83 87/82/84
f 81/85/85 85/88/86 88/87/87 82/86/88
f 86/81/81 87/82/84 88/87/87 85/88/86
s 12
f 94/89/89 91/92/90 92/91/91 95/90/92
f 89/93/93 93/96/94 96/95/95 90/94/96
f 94/89/89 95/90/92 96/95/95 93/96/94
s 13
f 102/97/97 103/98/98 100/99/99 99/100/100
f 97/101/101 98/102/102 104/103/103 101/104/104
f 102/97/97 101/104/104 104/103/103 103/98/98
s 14
f 110/105/105 111/106/106 108/107/107 107/108/108
f 105/109/109 106/110/110 112/111/111 109/112/112
f 110/105/105 109/112/112 112/111/111 111/106/106
s 15
f 118/113/113 119/114/114 116/115/115 115/116/116
f 113/117/117 114/118/118 120/119/119 117/120/120
f 118/113/113 117/120/120 120/119/119 119/114/114
s 16
f 126/121/121 127/122/122 124/123/123 123/124/124
f 121/125/125 122/126/126 128/127/127 125/128/128
f 126/121/121 125/128/128 128/127/127 127/122/122
s 17
f 134/129/129 135/130/130 132/131/131 131/132/132
f 129/133/133 130/134/134 136/135/135 133/136/136
f 134/129/129 133/136/136 136/135/135 135/130/130
s 18
f 142/137/137 143/138/138 140/139/139 139/140/140
f 137/141/141 138/142/142 144/143/143 141/144/144
f 142/137/137 141/144/144 144/143/143 143/138/138
s 19
f 150/145/145 151/146/146 148/147/147 147/148/148
f 145/149/149 146/150/150 152/151/151 149/152/152
f 150/145/145 149/152/152 152/151/151 151/146/146
s 20
f 158/153/153 159/154/154 156/155/155 155/156/156
f 153/157/157 154/158/158 160/159/159 157/160/160
f 158/153/153 157/160/160 160/159/159 159/154/154
s 21
f 166/161/161 167/162/162 164/163/163 163/164/164
f 161/165/165 162/166/166 168/167/167 165/168/168
f 166/161/161 165/168/168 168/167/167 167/162/162
s 22
f 174/169/169 175/170/170 172/171/171 171/172/172
f 169/173/173 170/174/174 176/175/175 173/176/176
f 174/169/169 173/176/176 176/175/175 175/170/170
s 23
f 182/177/177 183/178/178 180/179/179 179/180/180
f 177/181/181 178/182/182 184/183/183 181/184/184
f 182/177/177 181/184/184 184/183/183 183/178/178
s 24
f 190/185/185 191/186/186 188/187/187 187/188/188
f 185/189/189 186/190/190 192/191/191 189/192/192
f 190/185/185 189/192/192 192/191/191 191/186/186
