# This file uses centimeters as units for non-parametric coordinates.

mtllib TD_TowerplatformWater.mtl
g default
v -1.108272 -0.087664 1.108272
v 1.108272 -0.087664 1.108272
v -1.000000 0.000000 1.000000
v 1.000000 0.000000 1.000000
v -1.000000 0.000000 -1.000000
v 1.000000 0.000000 -1.000000
v -1.108272 -0.087664 -1.108272
v 1.108272 -0.087664 -1.108272
v 2.008703 -0.087665 -1.056025
v 1.056025 -0.087664 -2.008705
v 1.056025 -2.390643 -2.008705
v 2.008702 -2.390643 -1.056025
v -2.008704 -0.087664 -1.056025
v -1.056025 -0.087665 -2.008705
v -2.008703 -2.390643 -1.056025
v -1.056025 -2.390643 -2.008705
v 1.056025 -0.087665 2.008706
v 2.008703 -0.087664 1.056024
v 2.008702 -2.390643 1.056024
v 1.056025 -2.390643 2.008706
v -2.008704 -0.087664 1.056024
v -1.056024 -0.087664 2.008706
v -1.056025 -2.390643 2.008706
v -2.008703 -2.390643 1.056024
vt 0.375000 0.000000
vt 0.625000 0.000000
vt 0.625000 0.250000
vt 0.375000 0.250000
vt 0.625000 0.500000
vt 0.375000 0.500000
vt 0.875000 0.000000
vt 0.875000 0.250000
vt 0.125000 0.000000
vt 0.125000 0.250000
vt 0.625000 0.750000
vt 0.625000 1.000000
vt 0.375000 0.750000
vt 0.375000 1.000000
vt 0.565716 0.750000
vt 0.625000 0.940716
vt 0.434284 1.000000
vt 0.375000 0.809284
vt 0.565716 0.750000
vt 0.625000 0.809284
vt 0.375000 0.809284
vt 0.434284 0.750000
vt 0.625000 0.940716
vt 0.565716 1.000000
vt 0.434284 1.000000
vt 0.375000 0.940716
vt 0.625000 0.809284
vt 0.434284 0.750000
vt 0.565716 1.000000
vt 0.375000 0.940716
vn 0.000000 0.777189 0.629268
vn 0.000000 0.777189 0.629268
vn 0.000000 0.777189 0.629268
vn 0.000000 0.777189 0.629268
vn 0.000000 1.000000 0.000000
vn 0.000000 1.000000 0.000000
vn 0.000000 1.000000 0.000000
vn 0.000000 1.000000 0.000000
vn 0.000000 0.777189 -0.629268
vn 0.000000 0.777188 -0.629268
vn 0.000000 0.777189 -0.629268
vn 0.000000 0.777189 -0.629268
vn 0.629267 0.777189 0.000000
vn 0.629267 0.777189 0.000000
vn 0.629267 0.777189 0.000000
vn 0.629267 0.777189 0.000000
vn -0.629268 0.777188 0.000000
vn -0.629268 0.777188 0.000000
vn -0.629268 0.777188 0.000000
vn -0.629268 0.777188 0.000000
vn -0.000000 0.000000 -1.000000
vn -0.000000 0.000000 -1.000000
vn -0.000000 0.000000 -1.000000
vn -0.000000 0.000000 -1.000000
vn 1.000000 -0.000000 -0.000000
vn 1.000000 -0.000000 -0.000000
vn 1.000000 -0.000000 -0.000000
vn 1.000000 -0.000000 -0.000000
vn 0.000000 0.000000 1.000000
vn 0.000000 0.000000 1.000000
vn 0.000000 0.000000 1.000000
vn 0.000000 0.000000 1.000000
vn -1.000000 -0.000001 -0.000000
vn -1.000000 -0.000001 -0.000000
vn -1.000000 -0.000001 -0.000000
vn -1.000000 -0.000001 -0.000000
vn -0.000000 1.000000 -0.000000
vn 0.000000 1.000000 -0.000000
vn -0.000000 1.000000 -0.000000
vn -0.000000 1.000000 -0.000000
vn 0.000000 1.000000 -0.000000
vn 0.000000 1.000000 0.000000
vn 0.000000 1.000000 0.000000
vn 0.000000 1.000000 0.000000
vn -0.000000 1.000000 0.000000
vn 0.000000 1.000000 0.000000
vn 0.707108 -0.000000 -0.707106
vn 0.707108 -0.000000 -0.707106
vn 0.707108 -0.000000 -0.707106
vn 0.707108 -0.000000 -0.707106
vn -0.707108 -0.000000 -0.707106
vn -0.707107 -0.000000 -0.707106
vn -0.707107 -0.000000 -0.707106
vn -0.707107 -0.000000 -0.707106
vn 0.707109 -0.000000 0.707105
vn 0.707109 -0.000000 0.707105
vn 0.707109 -0.000000 0.707105
vn 0.707109 -0.000000 0.707105
vn -0.707108 -0.000000 0.707105
vn -0.707108 -0.000000 0.707106
vn -0.707108 -0.000000 0.707105
vn -0.707108 -0.000000 0.707105
vn 0.000000 1.000000 0.000000
vn 0.000000 1.000000 -0.000000
s off
g pCube9
usemtl initialShadingGroup
f 1/1/1 2/2/2 4/3/3 3/4/4
f 3/4/5 4/3/6 6/5/7 5/6/8
f 5/6/9 6/5/10 8/11/11 7/13/12
f 2/2/13 8/7/14 6/8/15 4/3/16
f 7/9/17 1/1/18 3/4/19 5/10/20
f 16/22/21 14/28/22 10/19/23 11/15/24
f 12/20/25 9/27/26 18/23/27 19/16/28
f 20/24/29 17/29/30 22/25/31 23/17/32
f 24/26/33 21/30/34 13/21/35 15/18/36
s 1
f 7/13/37 8/11/38 10/19/39 14/28/40
f 8/11/38 2/12/41 18/23/42 9/27/43
f 1/14/44 7/13/37 13/21/45 21/30/46
s off
f 10/19/47 9/27/48 12/20/49 11/15/50
f 13/21/51 14/28/52 16/22/53 15/18/54
f 18/23/55 17/29/56 20/24/57 19/16/58
f 22/25/59 21/30/60 24/26/61 23/17/62
s 1
f 22/25/63 1/14/44 21/30/46
f 2/12/41 1/14/44 22/25/63 17/29/64
f 18/23/42 2/12/41 17/29/64
f 10/19/39 8/11/38 9/27/43
f 13/21/45 7/13/37 14/28/40
