# This file uses centimeters as units for non-parametric coordinates.

mtllib TD_Waterwalkway_Base.mtl
g default
v -1.000000 0.964258 1.999902
v 1.000000 0.964258 1.999902
v -1.000000 0.964258 -0.000098
v 1.000000 0.964258 -0.000098
v 0.500000 0.964258 1.999902
v 0.500000 0.964258 -0.000098
v 0.000000 0.776125 1.999902
v 0.000000 0.776125 -0.000098
v -0.500000 0.964258 1.999902
v -0.500000 0.964258 -0.000098
v -1.000000 0.776125 1.999902
v -0.502582 0.776125 1.999902
v -1.000000 0.776125 -0.000098
v -0.502582 0.776125 -0.000098
v 1.000000 0.776125 1.999902
v 1.000000 0.776125 -0.000098
v 0.525644 0.776125 1.999902
v 0.481631 0.776125 -0.000098
v -1.000000 -1.415099 1.999902
v -0.502582 -1.415099 1.999902
v -1.000000 -1.415099 -0.000098
v -0.502582 -1.415099 -0.000098
v 1.000000 -1.415099 1.999902
v 1.000000 -1.415099 -0.000098
v 0.525644 -1.415100 1.999902
v 0.481631 -1.415100 -0.000098
v -0.000000 -1.415100 -0.000098
v -0.000000 -1.415100 1.999902
vt 0.625000 0.250000
vt 0.375000 0.250000
vt 0.625000 0.500000
vt 0.375000 0.500000
vt 0.562508 0.250001
vt 0.562506 0.499998
vt 0.500000 0.250002
vt 0.500000 0.499998
vt 0.437492 0.250001
vt 0.437494 0.499998
vt -0.023082 0.000377
vt 1.000000 0.000000
vt 1.000000 1.000000
vt 0.020183 0.999678
vt 0.000000 0.000000
vt 1.023082 0.000377
vt 0.979817 0.999678
vt 0.000000 1.000000
vt 0.000000 0.000000
vt 1.000000 0.000000
vt 1.000000 1.000000
vt 0.000000 1.000000
vt 0.000000 0.000000
vt 1.000000 0.000000
vt 1.000000 1.000000
vt 0.000000 1.000000
vt 0.000000 0.000000
vt 1.023082 0.000377
vt 0.979817 0.999678
vt 0.000000 1.000000
vt -0.023082 0.000377
vt 1.000000 0.000000
vt 1.000000 1.000000
vt -0.075788 0.916681
vt 0.000356 0.000858
vt 0.999900 0.000423
vt 0.999675 0.999482
vt 0.000100 0.000423
vt 0.999677 0.000806
vt -0.093236 1.136938
vt 0.000095 0.000464
vt 0.999677 0.000862
vt -0.093223 1.185552
vt 0.000323 0.000862
vt 0.999905 0.000464
vt 1.093223 1.185552
vt 0.000000 0.000000
vt 1.000000 0.000000
vt 1.000000 1.000000
vt 0.000000 1.000000
vt 0.000000 0.000000
vt 1.000000 0.000000
vt 1.000000 1.000000
vt 0.000000 1.000000
vt 0.000000 0.000000
vt 1.000000 0.000000
vt 1.000000 1.000000
vt 0.000000 1.000000
vt 0.000000 0.000000
vt 1.000000 0.000000
vt 1.000000 1.000000
vt 0.000000 1.000000
vt 0.000000 0.000000
vt 1.000000 0.000000
vt 1.000000 1.000000
vt 0.000000 1.000000
vt 0.000000 0.000000
vt 1.000000 0.000000
vt 1.000000 1.000000
vt 0.000000 1.000000
vt 0.000000 0.000000
vt 1.000000 0.000000
vt 1.000000 1.000000
vt 0.000000 1.000000
vt 0.000000 0.000000
vt 1.000000 0.000000
vt 1.000000 1.000000
vt 0.000000 1.000000
vt 0.000000 0.000000
vt 1.000000 0.000000
vt 1.000000 1.000000
vt 0.000000 1.000000
vt 0.000000 0.000000
vt 1.000000 0.000000
vt 1.000000 1.000000
vt 0.000000 1.000000
vn 0.000000 1.000000 0.000000
vn 0.000000 1.000000 0.000000
vn 0.000000 1.000000 0.000000
vn 0.000000 1.000000 0.000000
vn 0.000000 1.000000 0.000000
vn 0.000000 1.000000 0.000000
vn 0.000000 1.000000 0.000000
vn 0.000000 1.000000 0.000000
vn -0.352161 0.935939 0.000000
vn -0.352161 0.935939 0.000000
vn -0.352161 0.935939 0.000000
vn -0.352161 0.935939 0.000000
vn 0.352161 0.935939 0.000000
vn 0.352161 0.935939 0.000000
vn 0.352161 0.935939 0.000000
vn 0.352161 0.935939 0.000000
vn 0.000000 0.000000 1.000000
vn 0.000000 0.000000 1.000000
vn 0.000000 0.000000 1.000000
vn -0.000000 0.000000 1.000000
vn 0.000000 0.000000 -1.000000
vn 0.000000 0.000000 -1.000000
vn 0.000000 0.000000 -1.000000
vn 0.000000 0.000000 -1.000000
vn -1.000000 0.000000 0.000000
vn -1.000000 0.000000 0.000000
vn -1.000000 0.000000 0.000000
vn -1.000000 0.000000 0.000000
vn 1.000000 0.000000 0.000000
vn 1.000000 0.000000 0.000000
vn 1.000000 0.000000 0.000000
vn 1.000000 0.000000 0.000000
vn 0.000000 0.000000 1.000000
vn 0.000000 0.000000 1.000000
vn 0.000000 0.000000 1.000000
vn 0.000000 0.000000 1.000000
vn 0.000000 0.000000 -1.000000
vn 0.000000 0.000000 -1.000000
vn -0.000000 0.000000 -1.000000
vn 0.000000 0.000000 -1.000000
vn 0.000000 0.000000 -1.000000
vn 0.000000 0.000000 -1.000000
vn 0.000000 0.000000 -1.000000
vn 0.000000 0.000000 1.000000
vn -0.000000 0.000000 1.000000
vn -0.000000 0.000000 1.000000
vn 0.000000 0.000000 1.000000
vn 0.000000 0.000000 1.000000
vn 0.000000 0.000000 -1.000000
vn 0.000000 0.000000 -1.000000
vn -1.000000 0.000000 0.000000
vn -1.000000 0.000000 0.000000
vn 1.000000 0.000000 0.000000
vn 1.000000 0.000000 0.000000
vn 0.000000 0.000000 1.000000
vn 0.000000 0.000000 1.000000
vn -0.000000 0.000000 -1.000000
vn 0.000000 0.000000 -1.000000
vn 0.000000 0.000000 -1.000000
vn 0.000000 0.000000 1.000000
s off
g pCube14
usemtl initialShadingGroup
f 1/2/1 9/9/2 10/10/3 3/4/4
f 6/6/5 5/5/6 2/1/7 4/3/8
f 8/8/9 7/7/10 5/5/11 6/6/12
f 10/10/13 9/9/14 7/7/15 8/8/16
s 1
f 9/11/17 1/12/18 11/13/19 12/14/20
s 2
f 3/15/21 10/16/22 14/17/23 13/18/24
s 3
f 1/19/25 3/20/26 13/21/27 11/22/28
s 4
f 4/23/29 2/24/30 15/25/31 16/26/32
s 1
f 2/27/33 5/28/34 17/29/35 15/30/36
s 2
f 6/31/37 4/32/38 16/33/39 18/34/40
f 8/35/41 6/36/42 18/37/40
f 10/38/43 8/39/41 14/40/23
s 1
f 5/41/44 7/42/45 17/43/35
f 7/44/45 9/45/46 12/46/20
f 12/47/20 11/48/19 19/49/47 20/50/48
s 2
f 13/51/24 14/52/23 22/53/49 21/54/50
s 3
f 11/55/28 13/56/27 21/57/51 19/58/52
s 4
f 16/59/32 15/60/31 23/61/53 24/62/54
s 1
f 15/63/36 17/64/35 25/65/55 23/66/56
s 2
f 18/67/40 16/68/39 24/69/57 26/70/58
f 8/71/41 18/72/40 26/73/58 27/74/59
f 14/75/23 8/76/41 27/77/59 22/78/49
s 1
f 17/79/35 7/80/45 28/81/60 25/82/55
f 7/83/45 12/84/20 20/85/48 28/86/60
