# This file uses centimeters as units for non-parametric coordinates.

mtllib TD_Waterwalkway_BaseEnd.mtl
g default
v 2.400621 0.964258 -0.475304
v 4.400620 0.964258 -0.475304
v 2.400621 0.964258 -2.475304
v 4.400620 0.964258 -2.475304
v 3.900621 0.964258 -0.475304
v 3.900621 0.964258 -2.475304
v 3.400621 0.776125 -0.475304
v 3.400621 0.964258 -2.475304
v 2.900621 0.964258 -0.475304
v 2.900621 0.964258 -2.475304
v 4.400620 0.964258 -1.975304
v 3.900621 0.964258 -1.975304
v 3.400621 0.964258 -1.975304
v 2.900621 0.964258 -1.975304
v 2.400621 0.964258 -1.975304
v 4.400620 0.965433 -1.475304
v 3.900621 0.965433 -1.475304
v 3.400621 0.801069 -1.475304
v 2.900621 0.964258 -1.475304
v 2.400621 0.964258 -1.475304
v 2.400621 0.776125 -0.475304
v 2.887072 0.776125 -0.475304
v 2.400621 0.776125 -2.475304
v 2.900621 0.776125 -2.475304
v 4.400620 0.776125 -0.475304
v 3.914169 0.776125 -0.475304
v 3.900621 0.776125 -2.475304
v 4.400620 0.776125 -2.475304
v 3.400621 0.776125 -2.475304
v 4.400620 0.776125 -1.975304
v 2.400621 0.776125 -1.975304
v 2.400621 0.776125 -1.475304
v 2.400621 -1.415099 -0.475304
v 2.887072 -1.415099 -0.475304
v 2.400621 -1.415099 -2.475304
v 2.900621 -1.415099 -2.475304
v 4.400620 -1.415099 -0.475304
v 3.914169 -1.415099 -0.475304
v 3.900621 -1.415099 -2.475304
v 4.400620 -1.415099 -2.475304
v 3.400621 -1.415099 -2.475304
v 4.400620 -1.415100 -1.975304
v 2.400621 -1.415099 -1.975304
v 2.400621 -1.415099 -1.475304
v 3.400621 -1.415100 -0.475304
v 4.400620 -1.415100 -1.475304
v 4.400620 0.776125 -1.475304
vt 0.625000 0.250000
vt 0.375000 0.250000
vt 0.625000 0.500000
vt 0.375000 0.500000
vt 0.562500 0.250000
vt 0.562500 0.500000
vt 0.500000 0.250006
vt 0.500000 0.500000
vt 0.437500 0.250000
vt 0.437500 0.500000
vt 0.625000 0.437500
vt 0.562500 0.437500
vt 0.500000 0.437500
vt 0.437500 0.437500
vt 0.375000 0.437500
vt 0.624994 0.375000
vt 0.562500 0.375000
vt 0.500000 0.375000
vt 0.437500 0.375000
vt 0.375000 0.375000
vt 0.000000 0.000000
vt 1.000000 0.000000
vt 1.000000 1.000000
vt 0.026046 0.999584
vt 0.000000 0.000000
vt 1.000000 0.000000
vt 1.000000 1.000000
vt 0.000000 1.000000
vt 0.000000 0.000000
vt 0.000000 1.000000
vt 1.000000 0.000000
vt 1.000000 1.000000
vt 0.000000 0.000000
vt 1.000000 0.000000
vt 0.973954 0.999584
vt 0.000000 1.000000
vt 0.000000 0.000000
vt 1.000000 0.000000
vt 1.000000 1.000000
vt 0.000000 1.000000
vt 0.000000 0.000000
vt 1.000000 0.000000
vt 1.000000 1.000000
vt 0.000000 1.000000
vt 0.000000 0.000000
vt 1.000000 0.000000
vt 1.000000 1.000000
vt 0.000000 1.000000
vt 0.000000 0.000000
vt 1.000000 0.000000
vt 1.072794 1.015512
vt 0.000000 1.000000
vt 0.000000 0.000000
vt 1.000000 0.000000
vt 1.000000 1.000000
vt 0.000000 1.000000
vt 0.000000 0.000000
vt 1.000000 0.000000
vt 1.000000 1.000000
vt 0.000000 1.000000
vt 1.000000 0.000000
vt 1.000000 1.000000
vt 0.000000 0.000000
vt 1.013745 0.152091
vt -0.093708 1.101254
vt -0.013745 0.152091
vt 1.000000 0.000000
vt 1.093708 1.101254
vt 0.000000 0.000000
vt 0.000270 1.094597
vt 0.000295 0.154974
vt 0.000000 0.000000
vt 1.000000 0.000000
vt 1.000000 1.000000
vt 0.000000 1.000000
vt 0.000000 0.000000
vt 1.000000 0.000000
vt 1.000000 1.000000
vt 0.000000 1.000000
vt 0.000000 0.000000
vt 0.000000 1.000000
vt 1.000000 0.000000
vt 1.000000 1.000000
vt 0.000000 0.000000
vt 1.000000 0.000000
vt 1.000000 1.000000
vt 0.000000 1.000000
vt 0.000000 0.000000
vt 1.000000 0.000000
vt 1.000000 1.000000
vt 0.000000 1.000000
vt 0.000000 0.000000
vt 1.000000 0.000000
vt 1.000000 1.000000
vt 0.000000 1.000000
vt 0.000000 0.000000
vt 1.000000 0.000000
vt 1.000000 1.000000
vt 0.000000 1.000000
vt 0.000000 0.000000
vt 1.000000 0.000000
vt 1.000000 1.000000
vt 0.000000 1.000000
vt 0.000000 0.000000
vt 1.000000 0.000000
vt 1.000000 1.000000
vt 0.000000 1.000000
vt 0.000000 0.000000
vt 1.000000 0.000000
vt 1.000000 1.000000
vt 0.000000 1.000000
vt 1.000000 0.000000
vt 1.000000 1.000000
vt 0.000000 0.000000
vt 1.000000 0.000000
vt 1.000000 1.000000
vt 0.000000 1.000000
vt 0.000000 0.000000
vt 1.000000 0.000000
vt 1.000000 1.000000
vt 0.000000 1.000000
vt 1.000000 0.000000
vt 1.000000 1.000000
vt 0.000000 1.000000
vt 0.000000 1.000000
vt 1.000000 0.079523
vt 0.000271 0.222173
vn 0.000000 1.000000 0.000000
vn 0.000000 1.000000 0.000000
vn 0.000000 1.000000 0.000000
vn 0.000000 1.000000 0.000000
vn 0.000000 0.999999 0.001175
vn 0.000000 0.999999 0.001175
vn 0.000000 0.999999 0.001175
vn 0.000000 0.999999 0.001175
vn -0.332422 0.943050 0.012315
vn -0.332422 0.943050 0.012315
vn -0.332422 0.943050 0.012315
vn -0.332422 0.943050 0.012315
vn 0.331438 0.943404 0.011766
vn 0.331438 0.943404 0.011766
vn 0.331438 0.943404 0.011766
vn 0.331438 0.943404 0.011766
vn 0.000000 1.000000 0.000000
vn 0.000000 1.000000 0.000000
vn 0.000000 1.000000 0.000000
vn 0.000000 1.000000 0.000000
vn 0.000000 1.000000 0.000000
vn 0.000000 1.000000 0.000000
vn 0.000000 1.000000 0.000000
vn 0.000000 1.000000 0.000000
vn 0.000000 1.000000 0.000000
vn 0.000000 1.000000 0.000000
vn 0.000000 1.000000 0.000000
vn 0.000000 1.000000 0.000000
vn 0.000000 1.000000 0.000000
vn 0.000000 1.000000 0.000000
vn 0.000000 1.000000 0.000000
vn 0.000000 1.000000 0.000000
vn 0.000000 0.999997 -0.002350
vn 0.000000 0.999997 -0.002350
vn 0.000000 0.999997 -0.002350
vn 0.000000 0.999997 -0.002350
vn 0.000000 0.999997 -0.002350
vn 0.000000 0.999997 -0.002350
vn 0.000000 0.999997 -0.002350
vn 0.000000 1.000000 0.000000
vn 0.000000 1.000000 0.000000
vn 0.000000 1.000000 0.000000
vn 0.000000 0.000000 1.000000
vn 0.000000 0.000000 1.000000
vn 0.000000 0.000000 1.000000
vn 0.000000 0.000000 1.000000
vn 0.000000 0.000000 -1.000000
vn 0.000000 0.000000 -1.000000
vn 0.000000 0.000000 -1.000000
vn 0.000000 0.000000 -1.000000
vn -1.000000 0.000000 0.000000
vn -1.000000 0.000000 0.000000
vn -1.000000 0.000000 0.000000
vn -1.000000 0.000000 0.000000
vn 0.000000 0.000000 1.000000
vn 0.000000 0.000000 1.000000
vn -0.000000 0.000000 1.000000
vn -0.000000 0.000000 1.000000
vn 0.000000 0.000000 -1.000000
vn 0.000000 0.000000 -1.000000
vn 0.000000 0.000000 -1.000000
vn 0.000000 0.000000 -1.000000
vn 0.000000 0.000000 -1.000000
vn 0.000000 0.000000 -1.000000
vn 0.000000 0.000000 -1.000000
vn 0.000000 0.000000 -1.000000
vn 1.000000 0.000000 0.000000
vn 1.000000 0.000000 0.000000
vn 1.000000 -0.000000 0.000000
vn 1.000000 0.000000 0.000000
vn -1.000000 0.000000 0.000000
vn -1.000000 0.000000 0.000000
vn -1.000000 0.000000 0.000000
vn -1.000000 0.000000 0.000000
vn 0.000000 0.000000 1.000000
vn 0.000000 0.000000 1.000000
vn 0.000000 0.000000 1.000000
vn 1.000000 0.000000 0.000000
vn 1.000000 0.000000 0.000000
vn 1.000000 -0.000000 0.000000
vn 1.000000 -0.000000 0.000000
vn 1.000000 0.000000 0.000000
vn 0.000000 0.000000 1.000000
vn 0.000000 0.000000 1.000000
vn 0.000000 0.000000 -1.000000
vn 0.000000 0.000000 -1.000000
vn -1.000000 0.000000 0.000000
vn -1.000000 0.000000 0.000000
vn -0.000000 0.000000 1.000000
vn -0.000000 0.000000 1.000000
vn 0.000000 0.000000 -1.000000
vn 0.000000 0.000000 -1.000000
vn 0.000000 0.000000 -1.000000
vn 1.000000 -0.000000 0.000000
vn 1.000000 0.000000 0.000000
vn -1.000000 0.000000 0.000000
vn -1.000000 0.000000 0.000000
vn 0.000000 0.000000 1.000000
vn 1.000000 -0.000000 0.000000
vn 1.000000 -0.000000 0.000000
vn 0.296335 0.907949 0.296335
vn 0.296335 0.907949 0.296335
vn 0.296335 0.907949 0.296335
vn -0.298279 0.907374 0.296147
vn -0.298279 0.907374 0.296147
vn -0.298279 0.907373 0.296147
s 1
g pCube20
usemtl initialShadingGroup
f 1/2/1 9/9/2 19/19/3 20/20/4
s off
f 5/5/5 2/1/6 16/16/7 17/17/8
f 7/7/9 5/5/10 17/17/11 18/18/12
f 9/9/13 7/7/14 18/18/15 19/19/16
f 6/6/17 12/12/18 11/11/19 4/3/20
f 8/8/21 13/13/22 12/12/23 6/6/24
f 10/10/25 14/14/26 13/13/27 8/8/28
s 1
f 15/15/29 14/14/30 10/10/31 3/4/32
s off
f 12/12/33 17/17/34 16/16/35 11/11/36
f 12/12/37 13/13/38 17/17/39
f 19/19/40 13/13/41 14/14/42
s 1
f 20/20/4 19/19/3 14/14/30 15/15/29
s 2
f 9/21/43 1/22/44 21/23/45 22/24/46
s 3
f 3/25/47 10/26/48 24/27/49 23/28/50
s 4
f 21/30/51 1/29/52 20/61/53 32/62/54
s 2
f 2/33/55 5/34/56 26/35/57 25/36/58
s 3
f 6/37/59 4/38/60 28/39/61 27/40/62
f 8/41/63 6/42/64 27/43/62 29/44/65
f 10/45/66 8/46/63 29/47/65 24/48/49
s 8
f 4/49/67 11/50/68 30/51/69 28/52/70
s 4
f 15/53/71 3/54/72 23/55/73 31/56/74
f 20/57/53 15/58/71 31/59/74 32/60/54
s 2
f 5/63/75 7/64/76 26/65/57
f 7/66/76 9/67/77 22/68/46
s 8
f 30/70/69 11/69/78 16/122/79 47/126/80
f 25/32/81 47/127/80 16/71/79 2/31/82
s 2
f 22/72/46 21/73/45 33/74/83 34/75/84
s 3
f 23/76/50 24/77/49 36/78/85 35/79/86
s 4
f 44/113/87 33/81/88 21/80/51 32/112/54
s 2
f 25/84/58 26/85/57 38/86/89 37/87/90
s 3
f 27/88/62 28/89/61 40/90/91 39/91/92
f 29/92/65 27/93/62 39/94/92 41/95/93
f 24/96/49 29/97/65 41/98/93 36/99/85
s 8
f 28/100/70 30/101/69 42/102/94 40/103/95
s 4
f 31/104/74 23/105/73 35/106/96 43/107/97
f 32/108/54 31/109/74 43/110/97 44/111/87
s 2
f 26/114/57 7/115/76 45/116/98 38/117/89
f 7/118/76 22/119/46 34/120/84 45/121/98
s 8
f 37/83/99 46/125/100 47/127/80 25/82/81
f 30/70/69 47/126/80 46/123/100 42/124/94
s off
f 18/18/101 13/13/102 19/19/103
f 13/13/104 18/18/105 17/17/106
